# Blender v3.2.1 OBJ File: ''
# www.blender.org
mtllib Gras2.mtl
o Grass_3.001_Cube.007
v -0.018274 0.194057 -0.079372
v -0.018916 0.194255 -0.063405
v 0.002489 0.194469 -0.044721
v 0.008543 0.194378 -0.051656
v 0.039465 -0.174185 -0.034875
v -0.037383 -0.087145 -0.071955
v -0.043017 -0.174554 -0.070165
v -0.024759 -0.088124 -0.092070
v -0.024831 -0.174827 -0.090997
v 0.017541 -0.087285 -0.021476
v -0.009555 0.318382 -0.091309
v 0.021280 -0.173912 -0.014043
v 0.031217 -0.087490 -0.037143
v -0.025833 0.277110 0.039335
v 0.005550 0.191002 0.082377
v 0.014515 0.190979 0.098533
v 0.047960 0.191344 0.089671
v 0.030536 0.002843 0.036281
v 0.060371 -0.163558 0.056896
v 0.012921 0.002889 0.004539
v 0.038995 0.191367 0.073515
v -0.035173 0.002126 0.053692
v -0.014391 -0.170895 0.066108
v -0.052788 0.002171 0.021950
v 0.042755 -0.163513 0.025154
v -0.032006 -0.170849 0.034366
v -0.018363 -0.116179 0.041632
v -0.018186 -0.029469 0.041746
v -0.023401 -0.116217 0.009580
v -0.023224 -0.029507 0.009695
v 0.057060 -0.116048 0.053000
v 0.057237 -0.029337 0.053114
v 0.052022 -0.116085 0.020949
v 0.052199 -0.029375 0.021063
v 0.022587 0.257619 0.030049
v 0.020023 0.257599 0.013736
v 0.058412 0.257666 0.019522
v 0.060976 0.257686 0.035835
v 0.079671 0.313589 -0.014049
v -0.096457 0.045988 0.000064
v -0.083777 0.046398 -0.017853
v -0.116338 0.039406 -0.036108
v -0.125785 0.039804 -0.024511
v -0.053192 -0.163836 0.029362
v 0.006624 -0.071361 0.040348
v 0.020481 -0.157372 0.043604
v -0.007701 -0.068971 0.060264
v 0.004767 -0.157477 0.068470
v -0.044314 -0.077385 0.002809
v -0.175207 0.068989 -0.068765
v -0.037477 -0.163731 0.004496
v -0.056132 -0.077464 0.021509
v 0.108038 0.028614 0.057089
v 0.082096 0.030410 0.055299
v 0.096196 0.024224 0.087817
v 0.114149 0.023707 0.089883
v 0.079134 -0.182064 0.018984
v 0.040119 -0.089748 -0.033670
v 0.024667 -0.175570 -0.042606
v 0.069348 -0.088909 -0.031603
v 0.059003 -0.177574 -0.041549
v 0.055213 -0.093915 0.020913
v 0.124720 0.055135 0.145056
v 0.044798 -0.180061 0.017928
v 0.081035 -0.095422 0.021707
v -0.055935 -0.183190 -0.024998
v -0.054794 -0.097455 -0.026469
v -0.087171 -0.183260 -0.045844
v -0.086030 -0.097524 -0.047315
v -0.027384 -0.184599 -0.070074
v -0.027207 -0.097888 -0.069959
v -0.058620 -0.184669 -0.090920
v -0.058443 -0.097958 -0.090805
v -0.097656 0.146664 -0.089294
v -0.113436 0.146628 -0.099825
v -0.098706 0.146626 -0.128167
v -0.082925 0.146661 -0.117635
v -0.156961 0.203231 -0.178589
v -0.018363 -0.116179 0.041632
v -0.018186 -0.029469 0.041746
v -0.023401 -0.116217 0.009580
v -0.023224 -0.029507 0.009695
v 0.057060 -0.116048 0.053000
v 0.057237 -0.029337 0.053114
v 0.052022 -0.116085 0.020949
v 0.052199 -0.029375 0.021063
v 0.022587 0.257619 0.030049
v 0.020023 0.257599 0.013736
v 0.058412 0.257666 0.019522
v 0.060976 0.257686 0.035835
v 0.079671 0.313589 -0.014049
vt 0.625000 0.500000
vt 0.625000 0.250000
vt 0.625000 0.250000
vt 0.625000 0.500000
vt 0.125000 0.500000
vt 0.375000 0.500000
vt 0.375000 0.750000
vt 0.125000 0.750000
vt 0.625000 0.750000
vt 0.625000 1.000000
vt 0.375000 1.000000
vt 0.625000 0.000000
vt 0.625000 0.250000
vt 0.625000 0.750000
vt 0.625000 1.000000
vt 0.625000 0.000000
vt 0.375000 0.250000
vt 0.375000 0.000000
vt 0.625000 0.750000
vt 0.625000 1.000000
vt 0.625000 0.500000
vt 0.625000 0.500000
vt 0.625000 0.250000
vt 0.625000 0.250000
vt 0.625000 0.500000
vt 0.125000 0.500000
vt 0.375000 0.500000
vt 0.375000 0.750000
vt 0.125000 0.750000
vt 0.625000 0.750000
vt 0.625000 1.000000
vt 0.375000 1.000000
vt 0.625000 0.000000
vt 0.625000 0.250000
vt 0.625000 0.750000
vt 0.625000 1.000000
vt 0.625000 0.000000
vt 0.375000 0.250000
vt 0.375000 0.000000
vt 0.625000 0.750000
vt 0.625000 1.000000
vt 0.625000 0.500000
vt 0.625000 1.000000
vt 0.625000 0.750000
vt 0.625000 1.000000
vt 0.625000 0.750000
vt 0.625000 0.500000
vt 0.625000 0.500000
vt 0.625000 0.250000
vt 0.625000 0.250000
vt 0.625000 0.000000
vt 0.625000 0.250000
vt 0.625000 0.500000
vt 0.625000 0.750000
vt 0.375000 0.000000
vt 0.625000 0.000000
vt 0.375000 0.250000
vt 0.125000 0.500000
vt 0.375000 0.500000
vt 0.375000 0.750000
vt 0.125000 0.750000
vt 0.625000 1.000000
vt 0.375000 1.000000
vt 0.375000 0.000000
vt 0.625000 0.000000
vt 0.625000 0.250000
vt 0.375000 0.250000
vt 0.625000 0.500000
vt 0.375000 0.500000
vt 0.625000 0.750000
vt 0.375000 0.750000
vt 0.625000 1.000000
vt 0.375000 1.000000
vt 0.125000 0.500000
vt 0.125000 0.750000
vt 0.625000 0.250000
vt 0.625000 0.500000
vt 0.625000 0.750000
vt 0.625000 0.750000
vt 0.625000 0.000000
vt 0.625000 1.000000
vt 0.625000 0.250000
vt 0.625000 1.000000
vt 0.625000 0.500000
vt 0.625000 0.500000
vt 0.625000 0.250000
vt 0.625000 0.250000
vt 0.625000 0.500000
vt 0.125000 0.500000
vt 0.375000 0.500000
vt 0.375000 0.750000
vt 0.125000 0.750000
vt 0.625000 0.750000
vt 0.625000 1.000000
vt 0.375000 1.000000
vt 0.625000 0.000000
vt 0.625000 0.250000
vt 0.625000 0.750000
vt 0.625000 1.000000
vt 0.625000 0.000000
vt 0.375000 0.250000
vt 0.375000 0.000000
vt 0.625000 0.750000
vt 0.625000 1.000000
vt 0.625000 0.500000
vt 0.375000 0.000000
vt 0.625000 0.000000
vt 0.625000 0.250000
vt 0.375000 0.250000
vt 0.625000 0.500000
vt 0.375000 0.500000
vt 0.625000 0.750000
vt 0.375000 0.750000
vt 0.625000 1.000000
vt 0.375000 1.000000
vt 0.125000 0.500000
vt 0.125000 0.750000
vt 0.625000 0.250000
vt 0.625000 0.500000
vt 0.625000 0.750000
vt 0.625000 0.750000
vt 0.625000 0.000000
vt 0.625000 1.000000
vt 0.625000 0.250000
vt 0.625000 1.000000
vt 0.625000 0.500000
vt 0.375000 0.000000
vt 0.625000 0.000000
vt 0.625000 0.250000
vt 0.375000 0.250000
vt 0.625000 0.500000
vt 0.375000 0.500000
vt 0.625000 0.750000
vt 0.375000 0.750000
vt 0.625000 1.000000
vt 0.375000 1.000000
vt 0.125000 0.500000
vt 0.125000 0.750000
vt 0.625000 0.250000
vt 0.625000 0.500000
vt 0.625000 0.750000
vt 0.625000 0.750000
vt 0.625000 0.000000
vt 0.625000 1.000000
vt 0.625000 0.250000
vt 0.625000 1.000000
vt 0.625000 0.500000
vn -0.6713 0.0234 0.7408
vn -0.0008 -0.9999 0.0124
vn 0.6782 0.0178 -0.7347
vn 0.7195 0.3046 0.6241
vn 0.7062 0.0180 -0.7077
vn 0.7506 0.0941 0.6540
vn -0.7987 0.0163 -0.6015
vn -0.6659 0.0467 0.7445
vn 0.7509 0.0886 0.6544
vn -0.9366 0.0545 -0.3461
vn -0.9970 0.0660 -0.0409
vn 0.7145 -0.1163 -0.6899
vn -0.6436 0.2137 0.7349
vn 0.5513 0.0366 -0.8335
vn 0.0786 -0.9959 0.0455
vn -0.5924 0.0218 0.8053
vn -0.3285 -0.9145 -0.2362
vn -0.6223 -0.0678 0.7798
vn -0.6721 -0.5758 -0.4656
vn 0.8235 0.1600 0.5442
vn 0.5716 0.0451 -0.8193
vn -0.8427 -0.0771 -0.5329
vn 0.6145 0.6782 0.4031
vn 0.1642 0.9767 0.1385
vn -0.6480 0.0545 0.7597
vn 0.4879 0.0072 -0.8729
vn -0.2169 -0.4986 -0.8393
vn -0.8686 0.1140 0.4822
vn 0.2484 -0.2852 0.9257
vn 0.7922 0.4239 -0.4390
vn 0.1955 0.6160 0.7631
vn -0.8719 -0.0760 0.4838
vn 0.8704 0.0962 -0.4829
vn 0.0912 -0.9945 -0.0520
vn -0.2424 0.3628 -0.8998
vn 0.8730 0.0565 -0.4844
vn -0.1781 -0.1216 -0.9765
vn -0.8723 -0.0700 0.4840
vn 0.1781 0.1216 0.9765
vn -0.9879 0.0018 0.1553
vn 0.1490 0.0010 -0.9888
vn 0.9879 -0.0018 -0.1553
vn -0.1490 -0.0010 0.9888
vn 0.0016 -1.0000 0.0009
vn 0.1490 -0.0085 -0.9888
vn 0.8946 -0.4242 -0.1401
vn 0.9876 -0.0222 -0.1552
vn -0.9774 0.1451 0.1535
vn -0.1489 0.0614 0.9870
vn -0.6551 0.7486 0.1021
vn -0.1102 0.6820 0.7230
vn 0.1259 -0.5453 -0.8287
vn -0.9381 0.1122 0.3278
vn -0.0565 -0.9969 -0.0552
vn 0.9608 -0.0474 -0.2731
vn -0.0829 -0.8590 0.5052
vn 0.9645 -0.1475 -0.2189
vn -0.0792 -0.4744 0.8767
vn 0.0507 0.1000 -0.9937
vn -0.9465 0.1217 0.2988
vn -0.0325 -0.0307 0.9990
vn 0.0667 0.5827 -0.8099
vn 0.0866 0.9492 -0.3026
vn 0.9829 -0.0072 -0.1842
vn -0.9088 0.0805 0.4094
vn -0.5550 0.0216 0.8316
vn -0.8446 0.0022 -0.5354
vn 0.5551 -0.0000 -0.8318
vn 0.8446 -0.0022 0.5354
vn -0.0131 -0.9997 0.0229
vn -0.8433 -0.2079 -0.4956
vn 0.5476 -0.1668 -0.8200
vn 0.5548 -0.0356 -0.8312
vn -0.5516 0.1158 0.8261
vn 0.8286 0.2772 0.4865
vn -0.4495 0.5889 0.6716
vn 0.4583 0.8563 0.2381
vn -0.5348 -0.7980 -0.2779
g Grass_3.001_Cube.007_dunkelgrün
usemtl dunkelgrün
s off
f 6/1/1 10/2/1 3/3/1 2/4/1
f 12/5/2 7/6/2 9/7/2 5/8/2
f 9/7/3 8/9/3 13/10/3 5/11/3
f 3/3/4 4/12/4 11/13/4
f 13/10/5 8/9/5 1/14/5 4/15/5
f 10/2/6 13/16/6 4/12/6 3/3/6
f 7/6/7 6/1/7 8/9/7 9/7/7
f 12/17/8 10/2/8 6/1/8 7/6/8
f 5/18/9 13/16/9 10/2/9 12/17/9
f 8/9/10 6/1/10 2/4/10 1/14/10
f 1/14/11 2/4/11 11/19/11
f 4/15/12 1/14/12 11/20/12
f 2/4/13 3/3/13 11/21/13
f 45/22/14 49/23/14 42/24/14 41/25/14
f 51/26/15 46/27/15 48/28/15 44/29/15
f 48/28/16 47/30/16 52/31/16 44/32/16
f 42/24/17 43/33/17 50/34/17
f 52/31/18 47/30/18 40/35/18 43/36/18
f 49/23/19 52/37/19 43/33/19 42/24/19
f 46/27/20 45/22/20 47/30/20 48/28/20
f 51/38/21 49/23/21 45/22/21 46/27/21
f 44/39/22 52/37/22 49/23/22 51/38/22
f 47/30/23 45/22/23 41/25/23 40/35/23
f 40/35/24 41/25/24 50/40/24
f 43/36/25 40/35/25 50/41/25
f 41/25/26 42/24/26 50/42/26
f 21/43/27 15/44/27 14/45/27
f 24/46/28 22/47/28 16/48/28 15/44/28
f 22/47/29 18/49/29 17/50/29 16/48/29
f 17/50/30 21/51/30 14/52/30
f 16/48/31 17/50/31 14/53/31
f 15/44/32 16/48/32 14/54/32
f 25/55/33 20/56/33 18/49/33 19/57/33
f 19/58/34 23/59/34 26/60/34 25/61/34
f 20/62/35 24/46/35 15/44/35 21/43/35
f 18/49/36 20/56/36 21/51/36 17/50/36
f 26/60/37 24/46/37 20/62/37 25/63/37
f 23/59/38 22/47/38 24/46/38 26/60/38
f 19/57/39 18/49/39 22/47/39 23/59/39
g Grass_3.001_Cube.007_grün
usemtl grün
f 27/64/40 28/65/40 30/66/40 29/67/40
f 29/67/41 30/66/41 34/68/41 33/69/41
f 33/69/42 34/68/42 32/70/42 31/71/42
f 31/71/43 32/70/43 28/72/43 27/73/43
f 29/74/44 33/69/44 31/71/44 27/75/44
f 34/68/45 30/66/45 36/76/45 37/77/45
f 38/78/46 37/77/46 39/79/46
f 32/70/47 34/68/47 37/77/47 38/78/47
f 30/66/48 28/65/48 35/80/48 36/76/48
f 28/72/49 32/70/49 38/78/49 35/81/49
f 36/76/50 35/80/50 39/82/50
f 35/81/51 38/78/51 39/83/51
f 37/77/52 36/76/52 39/84/52
f 58/85/53 62/86/53 55/87/53 54/88/53
f 64/89/54 59/90/54 61/91/54 57/92/54
f 61/91/55 60/93/55 65/94/55 57/95/55
f 55/87/56 56/96/56 63/97/56
f 65/94/57 60/93/57 53/98/57 56/99/57
f 62/86/58 65/100/58 56/96/58 55/87/58
f 59/90/59 58/85/59 60/93/59 61/91/59
f 64/101/60 62/86/60 58/85/60 59/90/60
f 57/102/61 65/100/61 62/86/61 64/101/61
f 60/93/62 58/85/62 54/88/62 53/98/62
f 53/98/63 54/88/63 63/103/63
f 56/99/64 53/98/64 63/104/64
f 54/88/65 55/87/65 63/105/65
g Grass_3.001_Cube.007_grün.001
usemtl grün.001
f 66/106/66 67/107/66 69/108/66 68/109/66
f 68/109/67 69/108/67 73/110/67 72/111/67
f 72/111/68 73/110/68 71/112/68 70/113/68
f 70/113/69 71/112/69 67/114/69 66/115/69
f 68/116/70 72/111/70 70/113/70 66/117/70
f 73/110/71 69/108/71 75/118/71 76/119/71
f 77/120/72 76/119/72 78/121/72
f 71/112/73 73/110/73 76/119/73 77/120/73
f 69/108/74 67/107/74 74/122/74 75/118/74
f 67/114/75 71/112/75 77/120/75 74/123/75
f 75/118/76 74/122/76 78/124/76
f 74/123/77 77/120/77 78/125/77
f 76/119/78 75/118/78 78/126/78
g Grass_3.001_Cube.007_grün.002
usemtl grün.002
f 79/127/40 80/128/40 82/129/40 81/130/40
f 81/130/41 82/129/41 86/131/41 85/132/41
f 85/132/42 86/131/42 84/133/42 83/134/42
f 83/134/43 84/133/43 80/135/43 79/136/43
f 81/137/44 85/132/44 83/134/44 79/138/44
f 86/131/45 82/129/45 88/139/45 89/140/45
f 90/141/46 89/140/46 91/142/46
f 84/133/47 86/131/47 89/140/47 90/141/47
f 82/129/48 80/128/48 87/143/48 88/139/48
f 80/135/49 84/133/49 90/141/49 87/144/49
f 88/139/50 87/143/50 91/145/50
f 87/144/51 90/141/51 91/146/51
f 89/140/52 88/139/52 91/147/52
